<svg width="24" height="24" viewBox="0 0 24 24" fill="none" xmlns="http://www.w3.org/2000/svg">
<rect x="3" y="3" width="6" height="18" rx="2" fill="#22C55E"/>
<rect x="15" y="3" width="6" height="18" rx="2" fill="#22C55E"/>
<rect x="18" y="3" width="6.07394" height="12" transform="rotate(90 18 3)" fill="#22C55E"/>
<rect x="17" y="15" width="6" height="10" transform="rotate(90 17 15)" fill="#22C55E"/>
<ellipse cx="14.9128" cy="15.1232" rx="1.98837" ry="2.01643" fill="#22C55E"/>
<ellipse cx="8.94772" cy="9.07392" rx="1.98837" ry="2.01643" fill="#22C55E"/>
<ellipse cx="8.94772" cy="15.1232" rx="1.98837" ry="2.01643" fill="#22C55E"/>
<ellipse cx="14.9128" cy="9.07392" rx="1.98837" ry="2.01643" fill="#22C55E"/>
<rect width="6.17401" height="3.00367" rx="1" transform="matrix(0.702136 -0.712043 0.702136 0.712043 17.556 4.39612)" fill="#22C55E"/>
<rect width="5.61746" height="3.00367" rx="1" transform="matrix(0.702136 -0.712043 0.702136 0.712043 0 21.8612)" fill="#22C55E"/>
</svg>
