<svg width="364" height="108" viewBox="0 0 364 108" fill="none" xmlns="http://www.w3.org/2000/svg">
<rect width="16.9867" height="90.6569" rx="5" fill="#4A5B67"/>
<rect x="60.2622" y="27.9854" width="16.9867" height="62.6715" rx="5" fill="#4A5B67"/>
<rect x="185.64" y="27.9854" width="16.9867" height="62.6715" rx="5" fill="#4A5B67"/>
<rect x="249.542" y="27.9854" width="16.9867" height="62.6715" rx="5" fill="#4A5B67"/>
<rect x="309.4" y="27.9854" width="16.9867" height="62.6715" rx="5" fill="#4A5B67"/>
<rect x="347.013" y="27.9854" width="16.9867" height="62.6715" rx="5" fill="#4A5B67"/>
<rect x="224.062" y="55.5767" width="16.9867" height="35.0803" rx="5" fill="#4A5B67"/>
<path d="M119.311 36.4787C119.311 31.788 123.114 27.9854 127.804 27.9854C132.495 27.9854 136.298 31.788 136.298 36.4787V82.1636C136.298 86.8543 132.495 90.6569 127.804 90.6569C123.114 90.6569 119.311 86.8543 119.311 82.1636V36.4787Z" fill="#23B190"/>
<path d="M158.947 36.4787C158.947 31.788 162.749 27.9854 167.44 27.9854C172.131 27.9854 175.933 31.788 175.933 36.4787V82.1636C175.933 86.8543 172.131 90.6569 167.44 90.6569C162.749 90.6569 158.947 86.8543 158.947 82.1636V36.4787Z" fill="#23B190"/>
<rect x="103.133" y="27.9854" width="16.5547" height="42.8711" rx="5" transform="rotate(90 103.133 27.9854)" fill="#4A5B67"/>
<rect x="292.413" y="27.9854" width="16.5547" height="42.8711" rx="5" transform="rotate(90 292.413 27.9854)" fill="#4A5B67"/>
<rect x="358.742" y="27.9854" width="16.5547" height="42.8711" rx="5" transform="rotate(90 358.742 27.9854)" fill="#4A5B67"/>
<rect x="359.551" y="74.1022" width="16.5547" height="42.8711" rx="5" transform="rotate(90 359.551 74.1022)" fill="#4A5B67"/>
<rect x="173.102" y="57.1533" width="16.5547" height="42.8711" rx="8.27737" transform="rotate(90 173.102 57.1533)" fill="#23B190"/>
<rect x="241.049" y="74.1022" width="16.5547" height="48.1289" rx="5" transform="rotate(90 241.049 74.1022)" fill="#4A5B67"/>
<rect x="241.049" y="55.5767" width="11.0365" height="28.7156" rx="5" transform="rotate(90 241.049 55.5767)" fill="#4A5B67"/>
<rect x="151.262" y="102.088" width="6.87556" height="31.1387" rx="3.43778" transform="rotate(180 151.262 102.088)" fill="#23B190"/>
<rect x="291.604" y="104.847" width="6.87556" height="37.4453" rx="3.43778" transform="rotate(180 291.604 104.847)" fill="#23B190"/>
<rect x="144.387" y="104.847" width="6.70073" height="215.973" rx="3.35036" transform="rotate(-90 144.387 104.847)" fill="#23B190"/>
<rect x="78.4622" y="21.6788" width="6.70073" height="279.876" rx="3.35036" transform="rotate(-90 78.4622 21.6788)" fill="#23B190"/>
<rect x="174.72" y="27.9854" width="16.5547" height="55.4089" rx="8.27737" transform="rotate(90 174.72 27.9854)" fill="#23B190"/>
<rect x="241.049" y="27.9854" width="16.5547" height="55.4089" rx="5" transform="rotate(90 241.049 27.9854)" fill="#4A5B67"/>
<rect width="16.9867" height="28.3796" rx="5" transform="matrix(-1 0 0 1 111.627 27.9854)" fill="#4A5B67"/>
<rect width="16.9867" height="28.3796" rx="5" transform="matrix(-1 0 0 1 301.716 27.9854)" fill="#4A5B67"/>
<rect width="69.9689" height="14.9781" rx="5" fill="#4A5B67"/>
<rect y="27.9854" width="48.5333" height="14.9781" rx="5" fill="#4A5B67"/>
<ellipse cx="147.824" cy="74.2993" rx="5.05556" ry="4.92701" fill="#23B190"/>
<ellipse cx="148.229" cy="100.708" rx="5.05556" ry="4.92701" fill="#23B190"/>
<ellipse cx="288.167" cy="67.2044" rx="5.05556" ry="4.92701" fill="#23B190"/>
<ellipse cx="336.7" cy="59.3212" rx="5.05556" ry="4.92701" fill="#23B190"/>
<ellipse cx="358.944" cy="101.496" rx="5.05556" ry="4.92701" fill="#23B190"/>
<ellipse cx="358.135" cy="18.3285" rx="5.05556" ry="4.92701" fill="#23B190"/>
<ellipse cx="78.6644" cy="18.3285" rx="5.05556" ry="4.92701" fill="#23B190"/>
</svg>
