<svg width="104" height="37" viewBox="0 0 104 37" fill="none" xmlns="http://www.w3.org/2000/svg">
<rect x="83" y="11" width="6" height="18" rx="2" fill="#23B190"/>
<rect x="95" y="11" width="6" height="18" rx="2" fill="#23B190"/>
<rect x="98" y="11" width="6.07394" height="12" transform="rotate(90 98 11)" fill="#23B190"/>
<rect x="97" y="23" width="6" height="10" transform="rotate(90 97 23)" fill="#23B190"/>
<ellipse cx="94.9128" cy="23.1232" rx="1.98837" ry="2.01643" fill="#23B190"/>
<ellipse cx="88.9477" cy="17.0739" rx="1.98837" ry="2.01643" fill="#23B190"/>
<ellipse cx="88.9477" cy="23.1232" rx="1.98837" ry="2.01643" fill="#23B190"/>
<ellipse cx="94.9128" cy="17.0739" rx="1.98837" ry="2.01643" fill="#23B190"/>
<rect width="6.17401" height="3.00367" rx="1" transform="matrix(0.702136 -0.712043 0.702136 0.712043 97.556 12.3961)" fill="#23B190"/>
<rect width="5.61746" height="3.00367" rx="1" transform="matrix(0.702136 -0.712043 0.702136 0.712043 80 29.8612)" fill="#23B190"/>
<path d="M2.112 29V5.16H18.432V9.48H7.072V15.528H16.832V19.848H7.072V29H2.112ZM19.1469 29V11.528H23.6269V15.72L23.3069 15.112C23.6909 13.64 24.3202 12.648 25.1949 12.136C26.0909 11.6027 27.1469 11.336 28.3629 11.336H29.3869V15.496H27.8829C26.7096 15.496 25.7602 15.8587 25.0349 16.584C24.3096 17.288 23.9469 18.2907 23.9469 19.592V29H19.1469ZM36.4731 29.384C35.2144 29.384 34.1264 29.1813 33.2091 28.776C32.2917 28.3707 31.5877 27.7947 31.097 27.048C30.6064 26.28 30.361 25.3733 30.361 24.328C30.361 23.3467 30.585 22.4827 31.033 21.736C31.481 20.968 32.1637 20.328 33.0811 19.816C34.0197 19.304 35.1824 18.9413 36.5691 18.728L41.9131 17.864V21.384L37.4331 22.184C36.7504 22.312 36.2277 22.536 35.8651 22.856C35.5024 23.1547 35.3211 23.592 35.3211 24.168C35.3211 24.7013 35.5237 25.1173 35.9291 25.416C36.3344 25.7147 36.8357 25.864 37.4331 25.864C38.2224 25.864 38.9157 25.6933 39.5131 25.352C40.1104 25.0107 40.5691 24.552 40.8891 23.976C41.2304 23.3787 41.4011 22.728 41.4011 22.024V17.48C41.4011 16.8187 41.1344 16.264 40.6011 15.816C40.0891 15.368 39.3851 15.144 38.489 15.144C37.6357 15.144 36.8784 15.3787 36.2171 15.848C35.5771 16.3173 35.1077 16.936 34.8091 17.704L30.969 15.88C31.3104 14.8987 31.8544 14.056 32.6011 13.352C33.3477 12.648 34.2437 12.104 35.2891 11.72C36.3344 11.336 37.4757 11.144 38.713 11.144C40.1851 11.144 41.4864 11.4107 42.6171 11.944C43.7477 12.4773 44.6224 13.224 45.2411 14.184C45.8811 15.1227 46.201 16.2213 46.201 17.48V29H41.7211V26.184L42.8091 25.992C42.2971 26.76 41.7317 27.4 41.1131 27.912C40.4944 28.4027 39.8011 28.7653 39.0331 29C38.2651 29.256 37.4117 29.384 36.4731 29.384ZM57.8717 36.04C56.5277 36.04 55.2797 35.816 54.1277 35.368C52.9757 34.92 51.9837 34.2907 51.1517 33.48C50.341 32.6907 49.7544 31.752 49.3917 30.664L53.8397 29.096C54.0744 29.9067 54.5544 30.5467 55.2797 31.016C56.005 31.4853 56.869 31.72 57.8717 31.72C58.661 31.72 59.3437 31.5707 59.9197 31.272C60.4957 30.9947 60.933 30.5787 61.2317 30.024C61.5517 29.4693 61.7117 28.8187 61.7117 28.072V24.072L62.6397 25.224C62.0424 26.2053 61.2744 26.9413 60.3357 27.432C59.397 27.9013 58.2984 28.136 57.0397 28.136C55.4184 28.136 53.9677 27.7733 52.6877 27.048C51.4077 26.3013 50.405 25.288 49.6797 24.008C48.9544 22.7067 48.5917 21.2347 48.5917 19.592C48.5917 17.9493 48.9544 16.4987 49.6797 15.24C50.405 13.96 51.397 12.9573 52.6557 12.232C53.9144 11.5067 55.3437 11.144 56.9437 11.144C58.2024 11.144 59.301 11.4 60.2397 11.912C61.1784 12.4027 61.9784 13.16 62.6397 14.184L62.0317 15.336V11.528H66.5117V28.072C66.5117 29.608 66.1384 30.9733 65.3917 32.168C64.645 33.384 63.621 34.3333 62.3197 35.016C61.0397 35.6987 59.557 36.04 57.8717 36.04ZM57.7117 23.784C58.5224 23.784 59.2264 23.6133 59.8237 23.272C60.421 22.9307 60.8797 22.4507 61.1997 21.832C61.541 21.2133 61.7117 20.488 61.7117 19.656C61.7117 18.824 61.541 18.0987 61.1997 17.48C60.8584 16.84 60.389 16.3493 59.7917 16.008C59.1944 15.6453 58.501 15.464 57.7117 15.464C56.901 15.464 56.1757 15.6453 55.5357 16.008C54.917 16.3493 54.4264 16.84 54.0637 17.48C53.7224 18.0987 53.5517 18.824 53.5517 19.656C53.5517 20.4667 53.7224 21.1813 54.0637 21.8C54.4264 22.4187 54.917 22.9093 55.5357 23.272C56.1757 23.6133 56.901 23.784 57.7117 23.784ZM69.6201 29V11.528H74.1001V15.72L73.7801 15.112C74.1641 13.64 74.7934 12.648 75.6681 12.136C76.5641 11.6027 77.6201 11.336 78.8361 11.336H79.8601V15.496H78.3561C77.1828 15.496 76.2334 15.8587 75.5081 16.584C74.7828 17.288 74.4201 18.2907 74.4201 19.592V29H69.6201Z" fill="#4A5B67"/>
</svg>
